<?xml version="1.0" encoding="UTF-8"?><svg id="Capa_1" xmlns="http://www.w3.org/2000/svg" viewBox="0 0 697.67 143.23"><path d="M202.14,72.07v-.27c7.4-3.7,11.64-10.69,11.64-19.73,0-13.56-8.9-23.29-25.89-23.29h-42.88v7.89c0,.2.12.38.31.46l18.59,7.95h21.65c8.08,0,10.82,4.25,10.82,10s-3.42,10-10.69,10h-23.15v-13.54l-16.84-7.36c-.33-.14-.7.1-.7.46v73.74h46.44c17.4,0,26.44-10.27,26.44-24.25,0-10.69-5.89-18.9-15.75-22.06h.01ZM188.44,102.21h-25.89v-21.51h26.03c7.26,0,11.37,4.79,11.37,10.82s-3.29,10.69-11.51,10.69h0Z" style="fill:#1e326d;"/><path d="M233.93,28.78h17.54v73.43h46.85v16.17h-64.39V28.79h0Z" style="fill:#1e326d;"/><path d="M305.44,73.58c0-26.85,19.73-46.58,47.67-46.58s47.67,19.73,47.67,46.58-19.73,46.58-47.67,46.58-47.67-19.73-47.67-46.58ZM382.98,73.58c0-17.54-12.06-30.28-29.87-30.28s-29.86,12.74-29.86,30.28,12.06,30.41,29.86,30.41,29.87-12.88,29.87-30.41h0Z" style="fill:#1e326d;"/><path d="M417.92,28.78h17.54v39.18l32.06-39.18h22.06l-38.08,43.98,39.45,45.62h-22.6l-32.88-40.28v40.28h-17.54V28.79h-.01Z" style="fill:#1e326d;"/><path d="M505.32,28.78h17.54v39.18l32.06-39.18h22.06l-38.08,43.98,39.45,45.62h-22.6l-32.88-40.28v40.28h-17.54V28.79h-.01Z" style="fill:#23a4f9;"/><path d="M592.87,28.78h17.54v89.59h-17.54V28.78Z" style="fill:#23a4f9;"/><path d="M653.42,45.08h-26.71v-16.3h70.96v16.3h-26.71v73.29h-17.54V45.08h0Z" style="fill:#23a4f9;"/><path d="M3.13,55.96h100.74c1.73,0,3.13,1.5,3.13,3.34v40.06c0,4.34-.76,8.68-2.42,12.69-17.05,41.19-85.67,42.02-102.28-.14-1.57-3.99-2.3-8.26-2.3-12.55v-40.06c0-1.84,1.4-3.34,3.13-3.34ZM12,71.36v28.47c0,3.36.59,6.7,1.92,9.78,12.73,29.38,63.71,29.14,77.61,1.06,1.67-3.37,2.47-7.11,2.47-10.87v-28.69c0-1.19-.96-2.15-2.15-2.15H14.39c-1.32,0-2.4,1.08-2.4,2.4h.01Z" style="fill:#23a4f9;"/><path d="M88.72,67.96H15.28c-1.26,0-2.28-1.16-2.28-2.6v-31.19c0-3.44.58-6.88,1.83-10.05,12.51-31.85,62.22-32.49,74.43.1,1.18,3.16,1.74,6.55,1.74,9.96v31.18c0,1.44-1.02,2.6-2.28,2.6h0ZM80,59.08v-22.22c0-2.83-.47-5.64-1.46-8.21-8.66-22.34-41.52-22.09-50.78-.61-1.17,2.72-1.76,5.75-1.76,8.81v22.43c0,.93.63,1.68,1.41,1.68h51.01c.87,0,1.58-.84,1.58-1.88h0Z" style="fill:#23a4f9;"/></svg>